<svg xmlns="http://www.w3.org/2000/svg" viewBox="0 0 229.1391 26.75" fill="#000"><path d="M216.5822,6.394l.07-.07,6.082,20.08h3.214V.346h-3.456V9.642l.83,10.438-.07.068L217.17.346h-3.318V26.404h3.456V16.83l-.518-8.744Zm-27.266,12.234h-4.148l2.074-13.236h.068l1.314,9.468ZM185.9622.346l-5.666,26.058h3.386l.968-5.08h5.184l.968,5.08h3.49L188.6942.346Zm-25.192,0h-3.456V26.404h3.456Zm-24.952,0h-3.456V19.768c0,1.762-.036,3.664-2.35,3.664a4.6653,4.6653,0,0,1-2.282-.9v3.526a6.3636,6.3636,0,0,0,2.972.692c4.528,0,5.116-3.112,5.116-6.81Zm-30.794,18.282h-4.146l2.074-13.236h.068l1.314,9.468ZM101.6722.346l-5.668,26.058h3.388l.966-5.08h5.184l.968,5.08h3.492l-5.6-26.058Zm-34.666,0,5.15,14.826V26.404h3.456V15.172L80.45.346h-3.698L74.54,9.054l-.552,3.352h-.07L70.7382.346ZM41.4322,3.248c2.73,0,3.11,4.596,3.11,10.126s-.38,10.126-3.11,10.126-3.11-4.596-3.11-10.126.38-10.126,3.11-10.126m0-3.248c-6.704,0-6.774,8.674-6.774,13.374s.07,13.376,6.774,13.376,6.774-8.676,6.774-13.376S48.1362,0,41.4322,0M10.5362,7.188c0,2.764-.45,4.77-3.664,4.632V3.282H7.46c2.384-.034,3.076,1.868,3.076,3.906m-2.8,19.216c4.804,0,6.566-2.316,6.566-7.12,0-2.902-.69-5.184-3.662-6.116v-.07c2.764-.726,3.282-3.214,3.282-5.772,0-4.388-1.314-6.98-6.014-6.98h-4.32V26.404Zm-.864-11.82c3.18-.07,3.768,1.728,3.768,4.596s-.762,4.424-3.768,4.286Z"/></svg>
